inDegrees=yes
name=ik_MT_01200627-005-000_orientations_updatedTime
DataType=double
version=3
OpenSimVersion=4.5-2024-07-10-f38669b70
endheader
time	pelvis_tilt	pelvis_list	pelvis_rotation	pelvis_tx	pelvis_ty	pelvis_tz	hip_flexion_r	hip_adduction_r	hip_rotation_r	knee_angle_r	knee_angle_r_beta	ankle_angle_r	subtalar_angle_r	mtp_angle_r	hip_flexion_l	hip_adduction_l	hip_rotation_l	knee_angle_l	knee_angle_l_beta	ankle_angle_l	subtalar_angle_l	mtp_angle_l	lumbar_extension	lumbar_bending	lumbar_rotation	arm_flex_r	arm_add_r	arm_rot_r	elbow_flex_r	pro_sup_r	wrist_flex_r	wrist_dev_r	arm_flex_l	arm_add_l	arm_rot_l	elbow_flex_l	pro_sup_l	wrist_flex_l	wrist_dev_l
1748432657.964544	1.853186082550144	-0.3492512208879191	-172.1169835365301	0	0.9399999943917833	0	79.99999999525214	-7.000000001125469	0	79.99999999792263	1.396263401559207	0	0	0	79.99999999525214	-7.000000004501878	0	79.99999999802388	1.396263401560974	0	0	0	1.284294001649003	-0.3524669241112421	-0.6534150214785728	-5.907128683485415	-18.28747239194201	20.05252803753867	65.16077889937515	12.85389028098578	-1.723043345487648	-21.38515646787397	-10.07181751103121	-10.36262849636045	9.178028381759507	49.89009793847867	34.60986452585135	-2.571089348723619	-24.8342355953583
1748432657.974544	1.839175083212402	-0.3526861411789519	-172.1173428689186	0	0.9399999943917833	0	79.99999999525214	-7.000000001125469	0	79.99999999792263	1.396263401559207	0	0	0	79.99999999525214	-7.000000004501878	0	79.99999999802388	1.396263401560974	0	0	0	1.27785314448082	-0.3321314420745271	-0.6475672862284646	-6.152437721284211	-17.74455085089713	19.31992626188724	64.01997549379928	11.82533827304685	-3.540136756686485	-21.5249024952168	-9.405388797456553	-10.43482159174118	9.459785957882396	48.25392893348545	33.24131487145866	-2.951335248387303	-24.87088761446721
1748432657.984544	1.798536397709678	-0.3559280290839017	-172.1081455322253	0	0.9399999943917833	0	79.99999999525214	-7.000000001125469	0	79.99999999792263	1.396263401559207	0	0	0	79.99999999525214	-7.000000004501878	0	79.99999999802388	1.396263401560974	0	0	0	1.265916617105689	-0.3186539784252935	-0.6341494771852171	-6.374077366484606	-17.25471010892293	18.62036984036925	62.9163307474099	10.87735663813274	-5.628819199768849	-21.58423064933758	-8.724486150083738	-10.55084347277531	9.922454054471057	46.48392387850521	31.82068564863086	-3.32710797730188	-24.89138988014254
1748432657.994544	1.845931140844398	-0.3260359774688101	-172.0844536056606	0	0.9399999943917833	0	79.99999999525214	-7.000000001125469	0	79.99999999792263	1.396263401559207	0	0	0	79.99999999525214	-7.000000004501878	0	79.99999999802388	1.396263401560974	0	0	0	1.33347267050848	-0.2850704001920368	-0.6591986943792396	-6.529227965165675	-16.79007105579577	17.93388457099072	61.83970303747637	10.08995338324796	-8.004367808498667	-21.60627716073184	-8.077757188891162	-10.66512208792964	10.4973926150395	44.67411491044833	30.37440469722699	-3.758911057645634	-24.90267985418905
1748432658.004544	1.824271457571065	-0.3332899262413385	-172.0840371639901	0	0.9399999943917833	0	79.99999999525214	-7.000000001125469	0	79.99999999792263	1.396263401559207	0	0	0	79.99999999525214	-7.000000004501878	0	79.99999999802388	1.396263401560974	0	0	0	1.331225678764629	-0.2664926079450218	-0.6149518159566679	-6.663613120318347	-16.40537195983673	17.24323259455439	60.7083907501768	9.478446405449301	-10.46559999730429	-21.63771800845204	-7.437813067029523	-10.74949863219856	11.24780888390473	42.74007075440419	28.95441421508608	-4.157684845734351	-24.90904105055563
1748432658.014544	1.832032956173608	-0.3223848552348955	-172.0643613392866	0	0.9399999943917833	0	79.99999999525214	-7.000000001125469	0	79.99999999792263	1.396263401559207	0	0	0	79.99999999525214	-7.000000004501878	0	79.99999999802388	1.396263401560974	0	0	0	1.379764248000444	-0.2471174560293082	-0.620867100923866	-6.772702920362221	-16.10876852257939	16.65275336677073	59.59711544021889	9.000525451136109	-12.98729254737161	-21.66391692023821	-6.846222802035768	-10.8145205509254	12.08947618639917	40.75468751707857	27.55573595557751	-4.575241751800037	-24.91071143365449
1748432658.024544	1.815209577876899	-0.3228268813327577	-172.0680079193079	0	0.9399999943917833	0	79.99999999525214	-7.000000001125469	0	79.99999999792263	1.396263401559207	0	0	0	79.99999999525214	-7.000000004501878	0	79.99999999802388	1.396263401560974	0	0	0	1.380954820915723	-0.2266829187661202	-0.5756634830782976	-6.873988032586026	-15.85884451894651	16.10282701120004	58.46015094097414	8.677430255784499	-15.37575156604682	-21.73694627697902	-6.267421697213997	-10.78407797472175	13.02134017034317	38.69338123609043	26.24272068086445	-5.010088692044251	-24.90819257095245
1748432658.034544	1.825503065301195	-0.3109537908195145	-172.0569218783483	0	0.9399999943917833	0	79.99999999525214	-7.000000001125469	0	79.99999999792263	1.396263401559207	0	0	0	79.99999999525214	-7.000000004501878	0	79.99999999802388	1.396263401560974	0	0	0	1.414235668783791	-0.2076104182649383	-0.5798831526952066	-6.966344363931888	-15.62976375023877	15.68392045116941	57.28420426381795	8.531126779471707	-17.56867848404453	-21.86067044291786	-5.764532476194519	-10.65822664209689	13.95639686284049	36.64657828499499	25.03617766774844	-5.581346872572537	-24.90040883984279
